<?xml version="1.0" encoding="UTF-8" standalone="no"?>
<!-- Created with Inkscape (http://www.inkscape.org/) -->

<svg
   width="210mm"
   height="35mm"
   viewBox="0 0 210 35"
   version="1.1"
   id="svg1"
   xml:space="preserve"
   inkscape:version="1.3 (0e150ed6c4, 2023-07-21)"
   sodipodi:docname="wave.svg"
   xmlns:inkscape="http://www.inkscape.org/namespaces/inkscape"
   xmlns:sodipodi="http://sodipodi.sourceforge.net/DTD/sodipodi-0.dtd"
   xmlns="http://www.w3.org/2000/svg"
   xmlns:svg="http://www.w3.org/2000/svg"><sodipodi:namedview
     id="namedview1"
     pagecolor="#505050"
     bordercolor="#eeeeee"
     borderopacity="1"
     inkscape:showpageshadow="0"
     inkscape:pageopacity="0"
     inkscape:pagecheckerboard="0"
     inkscape:deskcolor="#505050"
     inkscape:document-units="mm"
     inkscape:zoom="0.96504997"
     inkscape:cx="386.50848"
     inkscape:cy="9.325942"
     inkscape:window-width="1920"
     inkscape:window-height="991"
     inkscape:window-x="-9"
     inkscape:window-y="-9"
     inkscape:window-maximized="1"
     inkscape:current-layer="layer1" /><defs
     id="defs1">&#10;	&#10;&#10;		&#10;		&#10;	&#10;			&#10;			&#10;			&#10;			&#10;		</defs><g
     inkscape:label="Calque 1"
     inkscape:groupmode="layer"
     id="layer1"><path
       style="fill:#8ce232;stroke-width:0.173803;fill-opacity:1"
       d="M -0.3710628,1.035133 5.4646468,2.3221676 C 18.215146,5.1215826 31.342601,7.6637057 45.116979,9.3386893 59.961762,11.14387 75.125407,11.662821 90.481735,11.319114 105.48424,10.98345 121.07137,10.371649 135.30603,8.1474928 148.80308,6.0387097 160.60357,1.6946233 174.91052,0.59846056 186.60823,-0.30935846 198.27965,1.5752279 204.08907,2.5060296 l 5.83571,0.9424081 V 32.751457 c -44.08721,0 -88.17442,0 -132.261628,0 -22.043473,0 -44.087209,0 -66.130682,0 -1.072508,0 -11.9035328,0.02585 -11.9035328,-0.03114 0,-0.268668 0,-0.537222 0,-0.805775 0,-1.354949 0,-2.709898 0,-4.064846 0,-8.938226 0,-17.8764507 0,-26.814561 z"
       id="path1" /><path
       style="fill:#78c32a;stroke-width:0.173803;fill-opacity:1"
       d="m -0.3710628,14.594961 5.8357096,-0.6665 c 9.8568292,-1.150517 20.1416102,-1.971806 30.3483182,-1.309327 11.7466,0.762338 22.483517,3.184376 33.949372,4.423491 12.762329,1.379081 25.949981,1.116848 38.629243,-0.295443 12.90218,-1.436997 25.38586,-3.636792 38.92234,-3.454998 13.47261,0.180989 26.76067,1.887804 39.85343,3.148868 7.58301,0.730392 15.16732,1.458486 22.7569,2.175892 v 14.134398 c -70.09844,0 -140.1974,0 -210.29583854,0 V 14.594961 Z"
       id="path2" /><path
       style="fill:#c9ff94;stroke-width:0.173803;fill-opacity:1"
       d="M -0.09689738,22.816279 5.7388122,22.184253 C 11.548234,21.552227 23.219653,20.288175 34.91736,19.62156 c 11.697706,-0.677991 23.421699,-0.746939 35.119405,0.06895 11.697706,0.827494 23.369125,2.551201 35.014265,3.619784 17.15803,1.591671 34.00378,1.388619 51.31928,0.51424 8.83479,-0.446211 17.64303,-0.801754 26.54485,-0.594334 7.20159,0.167889 14.3364,0.608008 21.44808,1.114319 l 5.83571,0.425296 v 11.031724 c -70.09844,0 -140.19741,0 -210.29584738,0 z"
       id="path3" /><path
       style="fill:#ffffff;stroke-width:0.173803"
       d="m -0.09689738,26.838262 5.83570958,0.574569 c 5.8094218,0.574569 17.4808408,1.723707 29.1785478,1.804032 11.697706,0.06895 23.421699,-0.919311 35.119405,-1.149138 12.994706,-0.255224 25.948404,0.420814 38.897115,0.782103 13.40636,0.374044 26.81955,0.442303 40.23432,0.110087 20.39712,-0.50539 40.59893,-0.863462 61.03101,-0.742687 v 7.814138 c -70.09844,0 -140.197407,0 -210.29584451,0 v -9.193104 z"
       id="path4" /><g
       id="Layer_1"
       transform="matrix(0.26458333,0,0,0.26458333,-10.451999,-73.512673)">&#10;</g></g></svg>
